<svg width="269" height="269" viewBox="0 0 269 269" fill="none" xmlns="http://www.w3.org/2000/svg">
<path d="M261.5 135C261.5 205.976 204.857 263.5 135 263.5C65.1433 263.5 8.5 205.976 8.5 135C8.5 64.024 65.1433 6.5 135 6.5C204.857 6.5 261.5 64.024 261.5 135Z" stroke="#00509D"/>
<path d="M264 134.5C266.761 134.5 269.01 136.739 268.907 139.499C267.961 164.942 259.809 189.633 245.351 210.673C229.948 233.089 208.11 250.308 182.72 260.059C157.33 269.81 129.581 271.634 103.132 265.291C76.6844 258.948 52.7808 244.736 34.5754 224.53C16.3699 204.323 4.71825 179.072 1.15758 152.108C-2.40308 125.144 2.29459 97.7343 14.6308 73.4949C26.967 49.2554 46.3621 29.3254 70.257 16.3345C92.6857 4.1407 118.09 -1.4017 143.493 0.300971C146.249 0.485641 148.242 2.95444 147.955 5.70092L147.597 9.13225C147.31 11.8787 144.851 13.8617 142.095 13.6885C119.398 12.2614 96.7202 17.2565 76.6813 28.151C55.1759 39.8429 37.7203 57.7799 26.6177 79.5954C15.5151 101.411 11.2872 126.08 14.4918 150.347C17.6964 174.615 28.183 197.341 44.5678 215.527C60.9527 233.712 82.466 246.503 106.269 252.212C130.072 257.921 155.047 256.279 177.898 247.503C200.749 238.727 220.403 223.23 234.266 203.056C247.184 184.257 254.508 162.221 255.447 139.499C255.561 136.74 257.789 134.5 260.55 134.5H264Z" fill="#FFD500"/>
</svg>
