<svg width="269" height="269" viewBox="0 0 269 269" fill="none" xmlns="http://www.w3.org/2000/svg">
<circle cx="135" cy="135" r="128.5" stroke="#00509D"/>
<path d="M264 134.5C266.761 134.5 269.01 136.74 268.907 139.499C268.05 162.541 261.282 185.006 249.215 204.72C236.276 225.856 217.75 243.008 195.679 254.28C173.609 265.553 148.854 270.509 124.145 268.601C101.1 266.821 78.9315 259.136 59.7615 246.323C57.4657 244.789 56.9692 241.654 58.5879 239.417L60.6103 236.622C62.229 234.385 65.3496 233.893 67.6517 235.418C84.809 246.783 104.607 253.602 125.18 255.191C147.418 256.908 169.698 252.448 189.562 242.302C209.425 232.157 226.099 216.721 237.743 197.698C248.516 180.098 254.597 160.061 255.447 139.499C255.561 136.74 257.789 134.5 260.55 134.5H264Z" fill="#FFD500"/>
</svg>
